<svg width="18" height="16" viewBox="0 0 18 16" fill="none" xmlns="http://www.w3.org/2000/svg">
<rect x="1.41016" y="7.83008" width="8.057" height="1.00713" transform="rotate(-52.8427 1.41016 7.83008)" fill="black"/>
<circle cx="2.11645" cy="7.73386" r="1.21953" transform="rotate(-52.8427 2.11645 7.73386)" fill="white" stroke="black" stroke-width="0.582313"/>
<circle cx="6.37427" cy="2.11668" r="1.21953" transform="rotate(-52.8427 6.37427 2.11668)" fill="white" stroke="black" stroke-width="0.582313"/>
<rect width="8.057" height="1.00713" transform="matrix(-0.604043 -0.796952 -0.796952 0.604043 11.3379 7.83008)" fill="black"/>
<circle r="1.21953" transform="matrix(-0.604043 -0.796952 -0.796952 0.604043 10.6316 7.73397)" fill="white" stroke="black" stroke-width="0.582313"/>
<circle r="1.21953" transform="matrix(-0.604043 -0.796952 -0.796952 0.604043 6.37377 2.11678)" fill="white" stroke="black" stroke-width="0.582313"/>
<rect x="5.66602" y="13.4609" width="8.057" height="1.00713" transform="rotate(-52.8427 5.66602 13.4609)" fill="black"/>
<circle cx="6.37231" cy="13.3647" r="1.21953" transform="rotate(-52.8427 6.37231 13.3647)" fill="white" stroke="black" stroke-width="0.582313"/>
<circle cx="10.6301" cy="7.74754" r="1.21953" transform="rotate(-52.8427 10.6301 7.74754)" fill="white" stroke="black" stroke-width="0.582313"/>
<rect width="8.057" height="1.00713" transform="matrix(-0.604043 -0.796952 -0.796952 0.604043 15.5918 13.4609)" fill="black"/>
<circle r="1.21953" transform="matrix(-0.604043 -0.796952 -0.796952 0.604043 14.8855 13.3648)" fill="white" stroke="black" stroke-width="0.582313"/>
<circle r="1.21953" transform="matrix(-0.604043 -0.796952 -0.796952 0.604043 10.6277 7.74764)" fill="white" stroke="black" stroke-width="0.582313"/>
</svg>
